<svg width="24" height="24" viewBox="0 0 24 24" fill="none" xmlns="http://www.w3.org/2000/svg">
<path d="M10.065 12.4929L3.88503 13.8109C3.64515 13.863 3.39442 13.8185 3.18707 13.6871C2.97971 13.5558 2.83242 13.348 2.77703 13.1089L2.24003 10.9589C2.17689 10.6999 2.21274 10.4266 2.34056 10.1926C2.46838 9.9586 2.67895 9.78076 2.93103 9.69391L16.435 5.25391" stroke="#16C586" stroke-width="2" stroke-linecap="round" stroke-linejoin="round"/>
<path d="M13.56 11.747L17.892 10.823" stroke="#16C586" stroke-width="2" stroke-linecap="round" stroke-linejoin="round"/>
<path d="M16 21L12.895 14.79" stroke="#16C586" stroke-width="2" stroke-linecap="round" stroke-linejoin="round"/>
<path d="M16.485 5.94012C16.3565 5.4256 16.4375 4.88109 16.7104 4.42634C16.9832 3.97158 17.4255 3.64382 17.94 3.51512L19.03 3.24312C19.2871 3.17898 19.5592 3.21951 19.7864 3.35583C20.0137 3.49214 20.1775 3.71308 20.242 3.97012L21.757 10.0301C21.8214 10.2874 21.7811 10.5597 21.6447 10.7872C21.5084 11.0147 21.2873 11.1787 21.03 11.2431L19.94 11.5151C19.4255 11.6437 18.881 11.5626 18.4262 11.2897C17.9715 11.0169 17.6437 10.5746 17.515 10.0601L16.485 5.94012Z" stroke="#16C586" stroke-width="2" stroke-linecap="round" stroke-linejoin="round"/>
<path d="M6.15802 8.63306L7.27202 13.0891" stroke="#16C586" stroke-width="2" stroke-linecap="round" stroke-linejoin="round"/>
<path d="M8 21L11.105 14.79" stroke="#16C586" stroke-width="2" stroke-linecap="round" stroke-linejoin="round"/>
<path d="M12 15C13.1046 15 14 14.1046 14 13C14 11.8954 13.1046 11 12 11C10.8954 11 10 11.8954 10 13C10 14.1046 10.8954 15 12 15Z" stroke="#16C586" stroke-width="2" stroke-linecap="round" stroke-linejoin="round"/>
</svg>
